# xmcd CD database file
#
# Track frame offsets:
#	150
#	24224
#	43928
#	67952
#
# Disc length: 1166 seconds
#
# Revision: 1
# Processed by: cddbd v1.5.2PL0 Copyright (c) Steve Scherf et al.
# Submitted via: CDex 1.70beta2
#
DISCID=2a048c04
DTITLE=三四六 - 今が輝かないのなら
DYEAR=2004
DGENRE=New Age
TTITLE0=今が輝かないのなら
TTITLE1=パパ、ありがとう
TTITLE2=今が輝かないのなら（Inst.)
TTITLE3=パパ、ありがとう（Inst.)
EXTD=YEAR: 2004
EXTT0=
EXTT1=
EXTT2=
EXTT3=
PLAYORDER=
